M48
; DRILL file {KiCad 8.0.7} date 2024-12-30T15:33:25-0500
; FORMAT={-:-/ absolute / inch / decimal}
; #@! TF.CreationDate,2024-12-30T15:33:25-05:00
; #@! TF.GenerationSoftware,Kicad,Pcbnew,8.0.7
; #@! TF.FileFunction,Plated,1,2,PTH
FMAT,2
INCH
; #@! TA.AperFunction,Plated,PTH,ComponentDrill
T1C0.0079
; #@! TA.AperFunction,Plated,PTH,ComponentDrill
T2C0.0197
; #@! TA.AperFunction,Plated,PTH,ComponentDrill
T3C0.0236
; #@! TA.AperFunction,Plated,PTH,ComponentDrill
T4C0.0315
; #@! TA.AperFunction,Plated,PTH,ComponentDrill
T5C0.0394
; #@! TA.AperFunction,Plated,PTH,ComponentDrill
T6C0.0512
; #@! TA.AperFunction,Plated,PTH,ComponentDrill
T7C0.1260
%
G90
G05
T1
X5.7815Y-2.5854
X5.7815Y-2.6406
X5.8091Y-2.5579
X5.8091Y-2.613
X5.8091Y-2.6681
X5.8356Y-2.5854
X5.8356Y-2.6406
X5.8642Y-2.5579
X5.8642Y-2.613
X5.8642Y-2.6681
X5.8917Y-2.5854
X5.8917Y-2.6406
T2
X4.063Y-2.2047
X4.063Y-5.7087
X4.0907Y-2.1379
X4.0907Y-2.2715
X4.0907Y-5.6418
X4.0907Y-5.7755
X4.1575Y-2.1102
X4.1575Y-2.2992
X4.1575Y-5.6142
X4.1575Y-5.8031
X4.2243Y-2.1379
X4.2243Y-2.2715
X4.2243Y-5.6418
X4.2243Y-5.7755
X4.252Y-2.2047
X4.252Y-5.7087
X7.6378Y-2.1654
X7.6614Y-5.7087
X7.6655Y-2.0985
X7.6655Y-2.2322
X7.6891Y-5.6418
X7.6891Y-5.7755
X7.7323Y-2.0709
X7.7323Y-2.2598
X7.7559Y-5.6142
X7.7559Y-5.8031
X7.7991Y-2.0985
X7.7991Y-2.2322
X7.8227Y-5.6418
X7.8227Y-5.7755
X7.8268Y-2.1654
X7.8504Y-5.7087
T4
X6.7717Y-2.7827
X6.7717Y-2.8827
X6.7717Y-2.9827
X6.7717Y-3.0827
X6.7717Y-3.1827
X6.7717Y-3.2827
X6.7717Y-3.3827
X6.7717Y-3.4827
X6.7717Y-3.5827
X6.7717Y-3.6827
X7.0717Y-2.7827
X7.0717Y-2.8827
X7.0717Y-2.9827
X7.0717Y-3.0827
X7.0717Y-3.1827
X7.0717Y-3.2827
X7.0717Y-3.3827
X7.0717Y-3.4827
X7.0717Y-3.5827
X7.0717Y-3.6827
T5
X5.9055Y-3.9551
X5.9055Y-4.0551
X5.9055Y-4.1551
X5.9055Y-4.2551
X5.9055Y-4.3551
X6.0055Y-3.9551
X6.0055Y-4.0551
X6.0055Y-4.1551
X6.0055Y-4.2551
X6.0055Y-4.3551
X7.0866Y-5.4331
X7.0866Y-5.6299
T6
X4.3031Y-4.7638
X4.3031Y-4.9638
X4.3031Y-5.1638
X4.9154Y-5.2067
X4.9154Y-5.502
X5.5161Y-5.2067
X5.5161Y-5.502
X5.7146Y-5.2067
X5.7146Y-5.502
X5.913Y-5.2067
X5.913Y-5.502
X7.6498Y-4.9789
X7.6498Y-5.1789
X7.6772Y-2.8346
X7.6772Y-3.0315
X7.6772Y-3.2283
X7.6772Y-3.4252
X7.6772Y-3.622
X7.6772Y-3.8189
X7.6772Y-4.0157
X7.6772Y-4.2126
T7
X4.1575Y-2.2047
X4.1575Y-5.7087
X7.7323Y-2.1654
X7.7559Y-5.7087
T3
G00X4.1831Y-3.4913
M15
G01X4.1594Y-3.4913
M16
G05
G00X4.1831Y-3.8315
M15
G01X4.1594Y-3.8315
M16
G05
G00X4.3575Y-3.4913
M15
G01X4.3142Y-3.4913
M16
G05
G00X4.3575Y-3.8315
M15
G01X4.3142Y-3.8315
M16
G05
M30
