%TF.GenerationSoftware,KiCad,Pcbnew,8.0.7*%
%TF.CreationDate,2024-12-30T15:32:59-05:00*%
%TF.ProjectId,IoT,496f542e-6b69-4636-9164-5f7063625858,rev?*%
%TF.SameCoordinates,Original*%
%TF.FileFunction,Copper,L1,Top*%
%TF.FilePolarity,Positive*%
%FSLAX46Y46*%
G04 Gerber Fmt 4.6, Leading zero omitted, Abs format (unit mm)*
G04 Created by KiCad (PCBNEW 8.0.7) date 2024-12-30 15:32:59*
%MOMM*%
%LPD*%
G01*
G04 APERTURE LIST*
G04 Aperture macros list*
%AMRoundRect*
0 Rectangle with rounded corners*
0 $1 Rounding radius*
0 $2 $3 $4 $5 $6 $7 $8 $9 X,Y pos of 4 corners*
0 Add a 4 corners polygon primitive as box body*
4,1,4,$2,$3,$4,$5,$6,$7,$8,$9,$2,$3,0*
0 Add four circle primitives for the rounded corners*
1,1,$1+$1,$2,$3*
1,1,$1+$1,$4,$5*
1,1,$1+$1,$6,$7*
1,1,$1+$1,$8,$9*
0 Add four rect primitives between the rounded corners*
20,1,$1+$1,$2,$3,$4,$5,0*
20,1,$1+$1,$4,$5,$6,$7,0*
20,1,$1+$1,$6,$7,$8,$9,0*
20,1,$1+$1,$8,$9,$2,$3,0*%
G04 Aperture macros list end*
%TA.AperFunction,SMDPad,CuDef*%
%ADD10R,1.450000X0.600000*%
%TD*%
%TA.AperFunction,SMDPad,CuDef*%
%ADD11R,1.450000X0.300000*%
%TD*%
%TA.AperFunction,ComponentPad*%
%ADD12O,2.100000X1.000000*%
%TD*%
%TA.AperFunction,ComponentPad*%
%ADD13O,1.600000X1.000000*%
%TD*%
%TA.AperFunction,ComponentPad*%
%ADD14R,2.600000X2.600000*%
%TD*%
%TA.AperFunction,ComponentPad*%
%ADD15C,2.600000*%
%TD*%
%TA.AperFunction,SMDPad,CuDef*%
%ADD16RoundRect,0.375000X-0.625000X-0.375000X0.625000X-0.375000X0.625000X0.375000X-0.625000X0.375000X0*%
%TD*%
%TA.AperFunction,SMDPad,CuDef*%
%ADD17RoundRect,0.500000X-0.500000X-1.400000X0.500000X-1.400000X0.500000X1.400000X-0.500000X1.400000X0*%
%TD*%
%TA.AperFunction,ComponentPad*%
%ADD18R,1.600000X1.600000*%
%TD*%
%TA.AperFunction,ComponentPad*%
%ADD19O,1.600000X1.600000*%
%TD*%
%TA.AperFunction,SMDPad,CuDef*%
%ADD20RoundRect,0.100000X-0.300000X-0.100000X0.300000X-0.100000X0.300000X0.100000X-0.300000X0.100000X0*%
%TD*%
%TA.AperFunction,HeatsinkPad*%
%ADD21R,1.500000X2.400000*%
%TD*%
%TA.AperFunction,SMDPad,CuDef*%
%ADD22RoundRect,0.062500X-0.350000X-0.062500X0.350000X-0.062500X0.350000X0.062500X-0.350000X0.062500X0*%
%TD*%
%TA.AperFunction,SMDPad,CuDef*%
%ADD23RoundRect,0.062500X-0.062500X-0.350000X0.062500X-0.350000X0.062500X0.350000X-0.062500X0.350000X0*%
%TD*%
%TA.AperFunction,HeatsinkPad*%
%ADD24R,2.600000X2.600000*%
%TD*%
%TA.AperFunction,SMDPad,CuDef*%
%ADD25RoundRect,0.093750X-0.156250X-0.093750X0.156250X-0.093750X0.156250X0.093750X-0.156250X0.093750X0*%
%TD*%
%TA.AperFunction,SMDPad,CuDef*%
%ADD26RoundRect,0.075000X-0.250000X-0.075000X0.250000X-0.075000X0.250000X0.075000X-0.250000X0.075000X0*%
%TD*%
%TA.AperFunction,SMDPad,CuDef*%
%ADD27R,0.900000X0.900000*%
%TD*%
%TA.AperFunction,HeatsinkPad*%
%ADD28C,0.600000*%
%TD*%
%TA.AperFunction,SMDPad,CuDef*%
%ADD29R,3.800000X3.800000*%
%TD*%
%TA.AperFunction,SMDPad,CuDef*%
%ADD30R,1.500000X0.900000*%
%TD*%
%TA.AperFunction,SMDPad,CuDef*%
%ADD31R,0.900000X1.500000*%
%TD*%
%TA.AperFunction,SMDPad,CuDef*%
%ADD32R,0.900000X1.000000*%
%TD*%
%TA.AperFunction,SMDPad,CuDef*%
%ADD33RoundRect,0.160000X-0.197500X-0.160000X0.197500X-0.160000X0.197500X0.160000X-0.197500X0.160000X0*%
%TD*%
%TA.AperFunction,SMDPad,CuDef*%
%ADD34RoundRect,0.150000X-0.587500X-0.150000X0.587500X-0.150000X0.587500X0.150000X-0.587500X0.150000X0*%
%TD*%
%TA.AperFunction,SMDPad,CuDef*%
%ADD35RoundRect,0.100000X-0.225000X-0.100000X0.225000X-0.100000X0.225000X0.100000X-0.225000X0.100000X0*%
%TD*%
%TA.AperFunction,ComponentPad*%
%ADD36O,2.000000X3.000000*%
%TD*%
%TA.AperFunction,ComponentPad*%
%ADD37R,3.000000X2.000000*%
%TD*%
%TA.AperFunction,ComponentPad*%
%ADD38O,3.000000X2.000000*%
%TD*%
%TA.AperFunction,ComponentPad*%
%ADD39R,1.700000X1.700000*%
%TD*%
%TA.AperFunction,ComponentPad*%
%ADD40O,1.700000X1.700000*%
%TD*%
%TA.AperFunction,SMDPad,CuDef*%
%ADD41RoundRect,0.150000X-0.625000X0.150000X-0.625000X-0.150000X0.625000X-0.150000X0.625000X0.150000X0*%
%TD*%
%TA.AperFunction,SMDPad,CuDef*%
%ADD42RoundRect,0.250000X-0.650000X0.350000X-0.650000X-0.350000X0.650000X-0.350000X0.650000X0.350000X0*%
%TD*%
%TA.AperFunction,ComponentPad*%
%ADD43C,0.800000*%
%TD*%
%TA.AperFunction,ComponentPad*%
%ADD44C,6.400000*%
%TD*%
%TA.AperFunction,SMDPad,CuDef*%
%ADD45RoundRect,0.237500X-0.287500X-0.237500X0.287500X-0.237500X0.287500X0.237500X-0.287500X0.237500X0*%
%TD*%
%TA.AperFunction,SMDPad,CuDef*%
%ADD46RoundRect,0.250001X-0.462499X-0.624999X0.462499X-0.624999X0.462499X0.624999X-0.462499X0.624999X0*%
%TD*%
%TA.AperFunction,SMDPad,CuDef*%
%ADD47RoundRect,0.147500X-0.147500X-0.172500X0.147500X-0.172500X0.147500X0.172500X-0.147500X0.172500X0*%
%TD*%
%TA.AperFunction,SMDPad,CuDef*%
%ADD48RoundRect,0.250000X-0.400000X-0.600000X0.400000X-0.600000X0.400000X0.600000X-0.400000X0.600000X0*%
%TD*%
%TA.AperFunction,SMDPad,CuDef*%
%ADD49RoundRect,0.155000X-0.212500X-0.155000X0.212500X-0.155000X0.212500X0.155000X-0.212500X0.155000X0*%
%TD*%
%TA.AperFunction,SMDPad,CuDef*%
%ADD50RoundRect,0.250000X-0.337500X-0.475000X0.337500X-0.475000X0.337500X0.475000X-0.337500X0.475000X0*%
%TD*%
%TA.AperFunction,ComponentPad*%
%ADD51R,2.000000X2.000000*%
%TD*%
%TA.AperFunction,ComponentPad*%
%ADD52C,2.000000*%
%TD*%
G04 APERTURE END LIST*
D10*
%TO.P,J1,A1,GND*%
%TO.N,N/C*%
X111045000Y-89750000D03*
%TO.P,J1,A4,VBUS*%
X111045000Y-90550000D03*
D11*
%TO.P,J1,A5,CC1*%
X111045000Y-91750000D03*
%TO.P,J1,A6,D+*%
X111045000Y-92750000D03*
%TO.P,J1,A7,D-*%
X111045000Y-93250000D03*
%TO.P,J1,A8,SBU1*%
X111045000Y-94250000D03*
D10*
%TO.P,J1,A9,VBUS*%
X111045000Y-95450000D03*
%TO.P,J1,A12,GND*%
X111045000Y-96250000D03*
%TO.P,J1,B1,GND*%
X111045000Y-96250000D03*
%TO.P,J1,B4,VBUS*%
X111045000Y-95450000D03*
D11*
%TO.P,J1,B5,CC2*%
X111045000Y-94750000D03*
%TO.P,J1,B6,D+*%
X111045000Y-93750000D03*
%TO.P,J1,B7,D-*%
X111045000Y-92250000D03*
%TO.P,J1,B8,SBU2*%
X111045000Y-91250000D03*
D10*
%TO.P,J1,B9,VBUS*%
X111045000Y-90550000D03*
%TO.P,J1,B12,GND*%
X111045000Y-89750000D03*
D12*
%TO.P,J1,S1,SHIELD*%
X110130000Y-88680000D03*
D13*
X105950000Y-88680000D03*
D12*
X110130000Y-97320000D03*
D13*
X105950000Y-97320000D03*
%TD*%
D14*
%TO.P,J3,1,Pin_1*%
%TO.N,N/C*%
X109300000Y-121000000D03*
D15*
%TO.P,J3,2,Pin_2*%
X109300000Y-126080000D03*
%TO.P,J3,3,Pin_3*%
X109300000Y-131160000D03*
%TD*%
D16*
%TO.P,U6,1,GND*%
%TO.N,GND*%
X126000000Y-104400000D03*
%TO.P,U6,2,VO*%
%TO.N,+3.3V*%
X126000000Y-106700000D03*
D17*
X132300000Y-106700000D03*
D16*
%TO.P,U6,3,VI*%
%TO.N,+5V*%
X126000000Y-109000000D03*
%TD*%
D18*
%TO.P,U5,1,A->B*%
%TO.N,+5V*%
X172000000Y-70680000D03*
D19*
%TO.P,U5,2,A0*%
%TO.N,/LEDSTR1*%
X172000000Y-73220000D03*
%TO.P,U5,3,A1*%
%TO.N,/LEDSTR2*%
X172000000Y-75760000D03*
%TO.P,U5,4,A2*%
%TO.N,/LEDSTR3*%
X172000000Y-78300000D03*
%TO.P,U5,5,A3*%
%TO.N,/LEDSTR4*%
X172000000Y-80840000D03*
%TO.P,U5,6,A4*%
%TO.N,GND*%
X172000000Y-83380000D03*
%TO.P,U5,7,A5*%
X172000000Y-85920000D03*
%TO.P,U5,8,A6*%
X172000000Y-88460000D03*
%TO.P,U5,9,A7*%
X172000000Y-91000000D03*
%TO.P,U5,10,GND*%
X172000000Y-93540000D03*
%TO.P,U5,11,B7*%
%TO.N,unconnected-(U5-B7-Pad11)*%
X179620000Y-93540000D03*
%TO.P,U5,12,B6*%
%TO.N,unconnected-(U5-B6-Pad12)*%
X179620000Y-91000000D03*
%TO.P,U5,13,B5*%
%TO.N,unconnected-(U5-B5-Pad13)*%
X179620000Y-88460000D03*
%TO.P,U5,14,B4*%
%TO.N,unconnected-(U5-B4-Pad14)*%
X179620000Y-85920000D03*
%TO.P,U5,15,B3*%
%TO.N,Net-(U5-B3)*%
X179620000Y-83380000D03*
%TO.P,U5,16,B2*%
%TO.N,Net-(U5-B2)*%
X179620000Y-80840000D03*
%TO.P,U5,17,B1*%
%TO.N,Net-(U5-B1)*%
X179620000Y-78300000D03*
%TO.P,U5,18,B0*%
%TO.N,Net-(U5-B0)*%
X179620000Y-75760000D03*
%TO.P,U5,19,CE*%
%TO.N,GND*%
X179620000Y-73220000D03*
%TO.P,U5,20,VCC*%
%TO.N,+5V*%
X179620000Y-70680000D03*
%TD*%
D20*
%TO.P,U4,1,SDA*%
%TO.N,/SDA*%
X117000000Y-104000000D03*
%TO.P,U4,2,GND*%
%TO.N,GND*%
X117000000Y-105000000D03*
%TO.P,U4,3,NC*%
%TO.N,unconnected-(U4-NC-Pad3)*%
X117000000Y-106000000D03*
%TO.P,U4,4,NC*%
%TO.N,unconnected-(U4-NC-Pad4)*%
X119900000Y-106000000D03*
%TO.P,U4,5,VDD*%
%TO.N,+3.3V*%
X119900000Y-105000000D03*
%TO.P,U4,6,SCL*%
%TO.N,/SCL*%
X119900000Y-104000000D03*
D21*
%TO.P,U4,7,PAD*%
%TO.N,GND*%
X118450000Y-105000000D03*
%TD*%
D22*
%TO.P,U3,1,~{RI}*%
%TO.N,unconnected-(U3-~{RI}-Pad1)*%
X116712500Y-95100000D03*
%TO.P,U3,2,GND*%
%TO.N,GND*%
X116712500Y-95600000D03*
%TO.P,U3,3,D+*%
%TO.N,Net-(U3-D+)*%
X116712500Y-96100000D03*
%TO.P,U3,4,D-*%
%TO.N,Net-(U3-D-)*%
X116712500Y-96600000D03*
%TO.P,U3,5,VIO*%
%TO.N,+3.3VA*%
X116712500Y-97100000D03*
%TO.P,U3,6,VDD*%
X116712500Y-97600000D03*
D23*
%TO.P,U3,7,REGIN*%
%TO.N,+5V*%
X117400000Y-98287500D03*
%TO.P,U3,8,VBUS*%
X117900000Y-98287500D03*
%TO.P,U3,9,~{RST}*%
%TO.N,Net-(U3-~{RST})*%
X118400000Y-98287500D03*
%TO.P,U3,10,NC*%
%TO.N,unconnected-(U3-NC-Pad10)*%
X118900000Y-98287500D03*
%TO.P,U3,11,GPIO.3*%
%TO.N,unconnected-(U3-GPIO.3-Pad11)*%
X119400000Y-98287500D03*
%TO.P,U3,12,RS485/GPIO.2*%
%TO.N,unconnected-(U3-RS485{slash}GPIO.2-Pad12)*%
X119900000Y-98287500D03*
D22*
%TO.P,U3,13,RXT/GPIO.1*%
%TO.N,unconnected-(U3-RXT{slash}GPIO.1-Pad13)*%
X120587500Y-97600000D03*
%TO.P,U3,14,TXT/GPIO.0*%
%TO.N,unconnected-(U3-TXT{slash}GPIO.0-Pad14)*%
X120587500Y-97100000D03*
%TO.P,U3,15,~{SUSPEND}*%
%TO.N,unconnected-(U3-~{SUSPEND}-Pad15)*%
X120587500Y-96600000D03*
%TO.P,U3,16,VPP*%
%TO.N,Net-(U3-VPP)*%
X120587500Y-96100000D03*
%TO.P,U3,17,SUSPEND*%
%TO.N,unconnected-(U3-SUSPEND-Pad17)*%
X120587500Y-95600000D03*
%TO.P,U3,18,~{CTS}*%
%TO.N,unconnected-(U3-~{CTS}-Pad18)*%
X120587500Y-95100000D03*
D23*
%TO.P,U3,19,~{RTS}*%
%TO.N,unconnected-(U3-~{RTS}-Pad19)*%
X119900000Y-94412500D03*
%TO.P,U3,20,RXD*%
%TO.N,Net-(U3-RXD)*%
X119400000Y-94412500D03*
%TO.P,U3,21,TXD*%
%TO.N,Net-(U3-TXD)*%
X118900000Y-94412500D03*
%TO.P,U3,22,~{DSR}*%
%TO.N,unconnected-(U3-~{DSR}-Pad22)*%
X118400000Y-94412500D03*
%TO.P,U3,23,~{DTR}*%
%TO.N,/DTR*%
X117900000Y-94412500D03*
%TO.P,U3,24,~{DCD}*%
%TO.N,unconnected-(U3-~{DCD}-Pad24)*%
X117400000Y-94412500D03*
D24*
%TO.P,U3,25,GND*%
%TO.N,GND*%
X118650000Y-96350000D03*
%TD*%
D25*
%TO.P,U2,1,I/O1*%
%TO.N,Net-(U3-D-)*%
X121000000Y-71000000D03*
D26*
%TO.P,U2,2,GND*%
%TO.N,GND*%
X120925000Y-71537500D03*
D25*
%TO.P,U2,3,I/O2*%
%TO.N,Net-(J1-D--PadA7)*%
X121000000Y-72075000D03*
%TO.P,U2,4,I/O2*%
%TO.N,Net-(J1-D+-PadA6)*%
X122700000Y-72075000D03*
D26*
%TO.P,U2,5,VBUS*%
%TO.N,+5V*%
X122775000Y-71537500D03*
D25*
%TO.P,U2,6,I/O1*%
%TO.N,Net-(U3-D+)*%
X122700000Y-71000000D03*
%TD*%
D27*
%TO.P,U1,39,GND*%
%TO.N,GND*%
X149650000Y-67770000D03*
D28*
X149650000Y-67070000D03*
D27*
X149650000Y-66370000D03*
D28*
X149650000Y-65670000D03*
D27*
X149650000Y-64970000D03*
D28*
X148950000Y-67770000D03*
X148950000Y-66370000D03*
X148950000Y-64970000D03*
D27*
X148250000Y-67770000D03*
D29*
X148250000Y-66370000D03*
D27*
X148250000Y-66370000D03*
X148250000Y-64970000D03*
D28*
X148225000Y-67070000D03*
X148225000Y-65670000D03*
X147550000Y-67770000D03*
X147550000Y-66370000D03*
X147550000Y-64970000D03*
D27*
X146850000Y-67770000D03*
D28*
X146850000Y-67070000D03*
D27*
X146850000Y-66370000D03*
D28*
X146850000Y-65670000D03*
D27*
X146850000Y-64970000D03*
D30*
%TO.P,U1,38,GND*%
X158500000Y-58650000D03*
%TO.P,U1,37,IO23*%
%TO.N,/SCL*%
X158500000Y-59920000D03*
%TO.P,U1,36,IO22*%
%TO.N,/SDA*%
X158500000Y-61190000D03*
%TO.P,U1,35,TXD0/IO1*%
%TO.N,/RX*%
X158500000Y-62460000D03*
%TO.P,U1,34,RXD0/IO3*%
%TO.N,/TX*%
X158500000Y-63730000D03*
%TO.P,U1,33,IO21*%
%TO.N,/SW*%
X158500000Y-65000000D03*
%TO.P,U1,32,NC*%
%TO.N,unconnected-(U1-NC-Pad32)*%
X158500000Y-66270000D03*
%TO.P,U1,31,IO19*%
%TO.N,/LEDSTR4*%
X158500000Y-67540000D03*
%TO.P,U1,30,IO18*%
%TO.N,/LEDSTR3*%
X158500000Y-68810000D03*
%TO.P,U1,29,IO5*%
%TO.N,unconnected-(U1-IO5-Pad29)*%
X158500000Y-70080000D03*
%TO.P,U1,28,IO17*%
%TO.N,/LEDSTR2*%
X158500000Y-71350000D03*
%TO.P,U1,27,IO16*%
%TO.N,/LEDSTR1*%
X158500000Y-72620000D03*
%TO.P,U1,26,IO4*%
%TO.N,unconnected-(U1-IO4-Pad26)*%
X158500000Y-73890000D03*
%TO.P,U1,25,IO0*%
%TO.N,/IO0*%
X158500000Y-75160000D03*
D31*
%TO.P,U1,24,IO2*%
%TO.N,unconnected-(U1-IO2-Pad24)*%
X155470000Y-76410000D03*
%TO.P,U1,23,IO15*%
%TO.N,/LED_G*%
X154200000Y-76410000D03*
%TO.P,U1,22,SDI/SD1*%
%TO.N,unconnected-(U1-SDI{slash}SD1-Pad22)*%
X152930000Y-76410000D03*
%TO.P,U1,21,SDO/SD0*%
%TO.N,unconnected-(U1-SDO{slash}SD0-Pad21)*%
X151660000Y-76410000D03*
%TO.P,U1,20,SCK/CLK*%
%TO.N,unconnected-(U1-SCK{slash}CLK-Pad20)*%
X150390000Y-76410000D03*
%TO.P,U1,19,SCS/CMD*%
%TO.N,unconnected-(U1-SCS{slash}CMD-Pad19)*%
X149120000Y-76410000D03*
%TO.P,U1,18,SWP/SD3*%
%TO.N,unconnected-(U1-SWP{slash}SD3-Pad18)*%
X147850000Y-76410000D03*
%TO.P,U1,17,SHD/SD2*%
%TO.N,unconnected-(U1-SHD{slash}SD2-Pad17)*%
X146580000Y-76410000D03*
%TO.P,U1,16,IO13*%
%TO.N,/LED_R*%
X145310000Y-76410000D03*
%TO.P,U1,15,GND*%
%TO.N,GND*%
X144040000Y-76410000D03*
D30*
%TO.P,U1,14,IO12*%
%TO.N,unconnected-(U1-IO12-Pad14)*%
X141000000Y-75160000D03*
%TO.P,U1,13,IO14*%
%TO.N,/LED_B*%
X141000000Y-73890000D03*
%TO.P,U1,12,IO27*%
%TO.N,/GPIO27*%
X141000000Y-72620000D03*
%TO.P,U1,11,IO26*%
%TO.N,/GPIO26*%
X141000000Y-71350000D03*
%TO.P,U1,10,IO25*%
%TO.N,/RELAY*%
X141000000Y-70080000D03*
%TO.P,U1,9,IO33*%
%TO.N,/GPIO33*%
X141000000Y-68810000D03*
%TO.P,U1,8,IO32*%
%TO.N,/GPIO32*%
X141000000Y-67540000D03*
%TO.P,U1,7,IO35*%
%TO.N,/GPIO35*%
X141000000Y-66270000D03*
%TO.P,U1,6,IO34*%
%TO.N,/GPIO34*%
X141000000Y-65000000D03*
%TO.P,U1,5,SENSOR_VN*%
%TO.N,unconnected-(U1-SENSOR_VN-Pad5)*%
X141000000Y-63730000D03*
%TO.P,U1,4,SENSOR_VP*%
%TO.N,unconnected-(U1-SENSOR_VP-Pad4)*%
X141000000Y-62460000D03*
%TO.P,U1,3,EN*%
%TO.N,/EN*%
X141000000Y-61190000D03*
%TO.P,U1,2,VDD*%
%TO.N,+3.3V*%
X141000000Y-59920000D03*
%TO.P,U1,1,GND*%
%TO.N,GND*%
X141000000Y-58650000D03*
%TD*%
D32*
%TO.P,SW1,1,A*%
%TO.N,GND*%
X114950000Y-64200000D03*
X119050000Y-64200000D03*
%TO.P,SW1,2,B*%
%TO.N,/SW*%
X114950000Y-65800000D03*
X119050000Y-65800000D03*
%TD*%
D33*
%TO.P,R20,2*%
%TO.N,/EN*%
X219445000Y-138990000D03*
%TO.P,R20,1*%
%TO.N,+3.3V*%
X218250000Y-138990000D03*
%TD*%
%TO.P,R19,2*%
%TO.N,Net-(J4-Pin_6)*%
X219445000Y-137000000D03*
%TO.P,R19,1*%
%TO.N,Net-(U5-B3)*%
X218250000Y-137000000D03*
%TD*%
%TO.P,R18,1*%
%TO.N,Net-(U5-B2)*%
X218250000Y-135010000D03*
%TO.P,R18,2*%
%TO.N,Net-(J4-Pin_5)*%
X219445000Y-135010000D03*
%TD*%
%TO.P,R17,1*%
%TO.N,Net-(U5-B1)*%
X218250000Y-133020000D03*
%TO.P,R17,2*%
%TO.N,Net-(J4-Pin_4)*%
X219445000Y-133020000D03*
%TD*%
%TO.P,R16,1*%
%TO.N,+5V*%
X218250000Y-131030000D03*
%TO.P,R16,2*%
%TO.N,Net-(D2-A)*%
X219445000Y-131030000D03*
%TD*%
%TO.P,R15,2*%
%TO.N,Net-(Q2-B)*%
X216195000Y-138990000D03*
%TO.P,R15,1*%
%TO.N,unconnected-(R15-Pad1)*%
X215000000Y-138990000D03*
%TD*%
%TO.P,R14,2*%
%TO.N,GND*%
X216195000Y-137000000D03*
%TO.P,R14,1*%
%TO.N,Net-(Q2-B)*%
X215000000Y-137000000D03*
%TD*%
%TO.P,R13,1*%
%TO.N,+3.3V*%
X215000000Y-135010000D03*
%TO.P,R13,2*%
%TO.N,/SCL*%
X216195000Y-135010000D03*
%TD*%
%TO.P,R12,1*%
%TO.N,+3.3V*%
X215000000Y-133020000D03*
%TO.P,R12,2*%
%TO.N,/SDA*%
X216195000Y-133020000D03*
%TD*%
%TO.P,R11,1*%
%TO.N,Net-(U5-B0)*%
X215000000Y-131030000D03*
%TO.P,R11,2*%
%TO.N,Net-(J4-Pin_3)*%
X216195000Y-131030000D03*
%TD*%
%TO.P,R10,2*%
%TO.N,Net-(D3-BK)*%
X212945000Y-138990000D03*
%TO.P,R10,1*%
%TO.N,/LED_B*%
X211750000Y-138990000D03*
%TD*%
%TO.P,R9,2*%
%TO.N,Net-(D3-GK)*%
X212945000Y-137000000D03*
%TO.P,R9,1*%
%TO.N,/LED_G*%
X211750000Y-137000000D03*
%TD*%
%TO.P,R8,1*%
%TO.N,/LED_R*%
X211750000Y-135010000D03*
%TO.P,R8,2*%
%TO.N,Net-(D3-RK)*%
X212945000Y-135010000D03*
%TD*%
%TO.P,R7,1*%
%TO.N,+3.3V*%
X211750000Y-133020000D03*
%TO.P,R7,2*%
%TO.N,/SW*%
X212945000Y-133020000D03*
%TD*%
%TO.P,R6,1*%
%TO.N,+3.3V*%
X211750000Y-131030000D03*
%TO.P,R6,2*%
%TO.N,Net-(D4-A)*%
X212945000Y-131030000D03*
%TD*%
%TO.P,R5,2*%
%TO.N,/TX*%
X209695000Y-138990000D03*
%TO.P,R5,1*%
%TO.N,Net-(U3-RXD)*%
X208500000Y-138990000D03*
%TD*%
%TO.P,R4,2*%
%TO.N,/RX*%
X209695000Y-137000000D03*
%TO.P,R4,1*%
%TO.N,Net-(U3-TXD)*%
X208500000Y-137000000D03*
%TD*%
%TO.P,R3,1*%
%TO.N,+3.3VA*%
X208500000Y-135010000D03*
%TO.P,R3,2*%
%TO.N,Net-(U3-~{RST})*%
X209695000Y-135010000D03*
%TD*%
%TO.P,R2,1*%
%TO.N,Net-(J1-CC1)*%
X208500000Y-133020000D03*
%TO.P,R2,2*%
%TO.N,GND*%
X209695000Y-133020000D03*
%TD*%
%TO.P,R1,1*%
%TO.N,Net-(J1-CC2)*%
X208500000Y-131030000D03*
%TO.P,R1,2*%
%TO.N,GND*%
X209695000Y-131030000D03*
%TD*%
D34*
%TO.P,Q2,1,B*%
%TO.N,Net-(Q2-B)*%
X177000000Y-61100000D03*
%TO.P,Q2,2,E*%
%TO.N,GND*%
X177000000Y-63000000D03*
%TO.P,Q2,3,C*%
%TO.N,Net-(D1-A)*%
X178875000Y-62050000D03*
%TD*%
D35*
%TO.P,Q1,1,E1*%
%TO.N,/DTR*%
X187000000Y-63700000D03*
%TO.P,Q1,2,B1*%
%TO.N,Net-(Q1A-B1)*%
X187000000Y-64350000D03*
%TO.P,Q1,3,C2*%
X187000000Y-65000000D03*
%TO.P,Q1,4,E2*%
%TO.N,/EN*%
X188900000Y-65000000D03*
%TO.P,Q1,5,B2*%
%TO.N,/DTR*%
X188900000Y-64350000D03*
%TO.P,Q1,6,C1*%
%TO.N,/IO0*%
X188900000Y-63700000D03*
%TD*%
D36*
%TO.P,K1,11*%
%TO.N,Net-(J3-Pin_2)*%
X145150000Y-132250000D03*
X145150000Y-139750000D03*
%TO.P,K1,12*%
%TO.N,Net-(J3-Pin_1)*%
X140110000Y-132250000D03*
X140110000Y-139750000D03*
%TO.P,K1,14*%
%TO.N,Net-(J3-Pin_3)*%
X150190000Y-132250000D03*
X150190000Y-139750000D03*
D37*
%TO.P,K1,A1*%
%TO.N,+5V*%
X124850000Y-139750000D03*
D38*
%TO.P,K1,A2*%
%TO.N,Net-(D1-A)*%
X124850000Y-132250000D03*
%TD*%
D39*
%TO.P,J6,1,Pin_1*%
%TO.N,+3.3V*%
X150000000Y-100460000D03*
D40*
%TO.P,J6,2,Pin_2*%
X152540000Y-100460000D03*
%TO.P,J6,3,Pin_3*%
%TO.N,/GPIO26*%
X150000000Y-103000000D03*
%TO.P,J6,4,Pin_4*%
%TO.N,/GPIO33*%
X152540000Y-103000000D03*
%TO.P,J6,5,Pin_5*%
%TO.N,/GPIO27*%
X150000000Y-105540000D03*
%TO.P,J6,6,Pin_6*%
%TO.N,/GPIO34*%
X152540000Y-105540000D03*
%TO.P,J6,7,Pin_7*%
%TO.N,/GPIO32*%
X150000000Y-108080000D03*
%TO.P,J6,8,Pin_8*%
%TO.N,/GPIO35*%
X152540000Y-108080000D03*
%TO.P,J6,9,Pin_9*%
%TO.N,GND*%
X150000000Y-110620000D03*
%TO.P,J6,10,Pin_10*%
X152540000Y-110620000D03*
%TD*%
D14*
%TO.P,J5,1,Pin_1*%
%TO.N,Net-(J5-Pin_1)*%
X194305000Y-131545000D03*
D15*
%TO.P,J5,2,Pin_2*%
%TO.N,GND*%
X194305000Y-126465000D03*
%TD*%
%TO.P,J4,8,Pin_8*%
%TO.N,GND*%
X195000000Y-72000000D03*
%TO.P,J4,7,Pin_7*%
X195000000Y-77000000D03*
%TO.P,J4,6,Pin_6*%
%TO.N,Net-(J4-Pin_6)*%
X195000000Y-82000000D03*
%TO.P,J4,5,Pin_5*%
%TO.N,Net-(J4-Pin_5)*%
X195000000Y-87000000D03*
%TO.P,J4,4,Pin_4*%
%TO.N,Net-(J4-Pin_4)*%
X195000000Y-92000000D03*
%TO.P,J4,3,Pin_3*%
%TO.N,Net-(J4-Pin_3)*%
X195000000Y-97000000D03*
%TO.P,J4,2,Pin_2*%
%TO.N,Net-(J4-Pin_1)*%
X195000000Y-102000000D03*
D14*
%TO.P,J4,1,Pin_1*%
X195000000Y-107000000D03*
%TD*%
D41*
%TO.P,J2,1,Pin_1*%
%TO.N,GND*%
X111000000Y-77000000D03*
%TO.P,J2,2,Pin_2*%
%TO.N,+3.3V*%
X111000000Y-78000000D03*
%TO.P,J2,3,Pin_3*%
%TO.N,/SDA*%
X111000000Y-79000000D03*
%TO.P,J2,4,Pin_4*%
%TO.N,/SCL*%
X111000000Y-80000000D03*
D42*
%TO.P,J2,MP*%
%TO.N,N/C*%
X107125000Y-75700000D03*
X107125000Y-81300000D03*
%TD*%
D43*
%TO.P,H4,1,1*%
%TO.N,GND*%
X194600000Y-145000000D03*
X195302944Y-143302944D03*
X195302944Y-146697056D03*
X197000000Y-142600000D03*
D44*
X197000000Y-145000000D03*
D43*
X197000000Y-147400000D03*
X198697056Y-143302944D03*
X198697056Y-146697056D03*
X199400000Y-145000000D03*
%TD*%
%TO.P,H3,1,1*%
%TO.N,GND*%
X194000000Y-55000000D03*
X194702944Y-53302944D03*
X194702944Y-56697056D03*
X196400000Y-52600000D03*
D44*
X196400000Y-55000000D03*
D43*
X196400000Y-57400000D03*
X198097056Y-53302944D03*
X198097056Y-56697056D03*
X198800000Y-55000000D03*
%TD*%
%TO.P,H2,1,1*%
%TO.N,GND*%
X103200000Y-145000000D03*
X103902944Y-143302944D03*
X103902944Y-146697056D03*
X105600000Y-142600000D03*
D44*
X105600000Y-145000000D03*
D43*
X105600000Y-147400000D03*
X107297056Y-143302944D03*
X107297056Y-146697056D03*
X108000000Y-145000000D03*
%TD*%
%TO.P,H1,1,1*%
%TO.N,GND*%
X103200000Y-56000000D03*
X103902944Y-54302944D03*
X103902944Y-57697056D03*
X105600000Y-53600000D03*
D44*
X105600000Y-56000000D03*
D43*
X105600000Y-58400000D03*
X107297056Y-54302944D03*
X107297056Y-57697056D03*
X108000000Y-56000000D03*
%TD*%
D45*
%TO.P,FB1,1*%
%TO.N,+5VP*%
X120000000Y-81000000D03*
%TO.P,FB1,2*%
%TO.N,Net-(F2-Pad1)*%
X121750000Y-81000000D03*
%TD*%
D46*
%TO.P,F2,2*%
%TO.N,+5V*%
X115975000Y-59000000D03*
%TO.P,F2,1*%
%TO.N,Net-(F2-Pad1)*%
X113000000Y-59000000D03*
%TD*%
D47*
%TO.P,F1,1*%
%TO.N,Net-(J5-Pin_1)*%
X157000000Y-127000000D03*
%TO.P,F1,2*%
%TO.N,Net-(J4-Pin_1)*%
X157970000Y-127000000D03*
%TD*%
D45*
%TO.P,D4,1,K*%
%TO.N,GND*%
X157000000Y-136000000D03*
%TO.P,D4,2,A*%
%TO.N,Net-(D4-A)*%
X158750000Y-136000000D03*
%TD*%
D30*
%TO.P,D3,1,RK*%
%TO.N,Net-(D3-RK)*%
X127100000Y-64000000D03*
%TO.P,D3,2,GK*%
%TO.N,Net-(D3-GK)*%
X127100000Y-65400000D03*
%TO.P,D3,3,BK*%
%TO.N,Net-(D3-BK)*%
X124000000Y-64000000D03*
%TO.P,D3,4,A*%
%TO.N,+3.3V*%
X124000000Y-65400000D03*
%TD*%
D45*
%TO.P,D2,1,K*%
%TO.N,Net-(D1-A)*%
X157000000Y-133410000D03*
%TO.P,D2,2,A*%
%TO.N,Net-(D2-A)*%
X158750000Y-133410000D03*
%TD*%
D48*
%TO.P,D1,2,A*%
%TO.N,Net-(D1-A)*%
X159500000Y-141000000D03*
%TO.P,D1,1,K*%
%TO.N,+5V*%
X156000000Y-141000000D03*
%TD*%
D49*
%TO.P,C16,1*%
%TO.N,/EN*%
X211000000Y-114940000D03*
%TO.P,C16,2*%
%TO.N,GND*%
X212135000Y-114940000D03*
%TD*%
D50*
%TO.P,C15,1*%
%TO.N,+3.3V*%
X211000000Y-90040000D03*
%TO.P,C15,2*%
%TO.N,GND*%
X213075000Y-90040000D03*
%TD*%
D49*
%TO.P,C14,1*%
%TO.N,+3.3V*%
X211000000Y-112970000D03*
%TO.P,C14,2*%
%TO.N,GND*%
X212135000Y-112970000D03*
%TD*%
%TO.P,C13,1*%
%TO.N,+3.3V*%
X211000000Y-111000000D03*
%TO.P,C13,2*%
%TO.N,GND*%
X212135000Y-111000000D03*
%TD*%
D50*
%TO.P,C12,1*%
%TO.N,+3.3V*%
X211000000Y-87030000D03*
%TO.P,C12,2*%
%TO.N,GND*%
X213075000Y-87030000D03*
%TD*%
D49*
%TO.P,C11,1*%
%TO.N,+5V*%
X211000000Y-109030000D03*
%TO.P,C11,2*%
%TO.N,GND*%
X212135000Y-109030000D03*
%TD*%
%TO.P,C10,2*%
%TO.N,GND*%
X212135000Y-107060000D03*
%TO.P,C10,1*%
%TO.N,/SW*%
X211000000Y-107060000D03*
%TD*%
D50*
%TO.P,C9,1*%
%TO.N,+3.3V*%
X211000000Y-84020000D03*
%TO.P,C9,2*%
%TO.N,GND*%
X213075000Y-84020000D03*
%TD*%
%TO.P,C8,1*%
%TO.N,+5V*%
X211000000Y-81010000D03*
%TO.P,C8,2*%
%TO.N,GND*%
X213075000Y-81010000D03*
%TD*%
%TO.P,C7,1*%
%TO.N,Net-(U3-VPP)*%
X211000000Y-78000000D03*
%TO.P,C7,2*%
%TO.N,GND*%
X213075000Y-78000000D03*
%TD*%
D49*
%TO.P,C6,2*%
%TO.N,GND*%
X212135000Y-105090000D03*
%TO.P,C6,1*%
%TO.N,+3.3VA*%
X211000000Y-105090000D03*
%TD*%
D50*
%TO.P,C5,1*%
%TO.N,+3.3VA*%
X211000000Y-74990000D03*
%TO.P,C5,2*%
%TO.N,GND*%
X213075000Y-74990000D03*
%TD*%
%TO.P,C4,1*%
%TO.N,+5V*%
X211000000Y-71980000D03*
%TO.P,C4,2*%
%TO.N,GND*%
X213075000Y-71980000D03*
%TD*%
%TO.P,C3,1*%
%TO.N,+5V*%
X211000000Y-68970000D03*
%TO.P,C3,2*%
%TO.N,GND*%
X213075000Y-68970000D03*
%TD*%
D49*
%TO.P,C2,1*%
%TO.N,+5V*%
X211000000Y-103120000D03*
%TO.P,C2,2*%
%TO.N,GND*%
X212135000Y-103120000D03*
%TD*%
D51*
%TO.P,C1,1*%
%TO.N,Net-(J5-Pin_1)*%
X180000000Y-143000000D03*
D52*
%TO.P,C1,2*%
%TO.N,GND*%
X180000000Y-138000000D03*
%TD*%
M02*
