%TF.GenerationSoftware,KiCad,Pcbnew,8.0.7*%
%TF.CreationDate,2024-12-30T15:33:00-05:00*%
%TF.ProjectId,IoT,496f542e-6b69-4636-9164-5f7063625858,rev?*%
%TF.SameCoordinates,Original*%
%TF.FileFunction,Soldermask,Bot*%
%TF.FilePolarity,Negative*%
%FSLAX46Y46*%
G04 Gerber Fmt 4.6, Leading zero omitted, Abs format (unit mm)*
G04 Created by KiCad (PCBNEW 8.0.7) date 2024-12-30 15:33:00*
%MOMM*%
%LPD*%
G01*
G04 APERTURE LIST*
%ADD10C,0.650000*%
%ADD11O,2.100000X1.000000*%
%ADD12O,1.600000X1.000000*%
%ADD13R,2.600000X2.600000*%
%ADD14C,2.600000*%
%ADD15R,1.600000X1.600000*%
%ADD16O,1.600000X1.600000*%
%ADD17O,2.000000X3.000000*%
%ADD18R,3.000000X2.000000*%
%ADD19O,3.000000X2.000000*%
%ADD20R,1.700000X1.700000*%
%ADD21O,1.700000X1.700000*%
%ADD22C,0.800000*%
%ADD23C,6.400000*%
%ADD24R,2.000000X2.000000*%
%ADD25C,2.000000*%
G04 APERTURE END LIST*
D10*
%TO.C,J1*%
X109600000Y-90110000D03*
X109600000Y-95890000D03*
D11*
X110130000Y-88680000D03*
D12*
X105950000Y-88680000D03*
D11*
X110130000Y-97320000D03*
D12*
X105950000Y-97320000D03*
%TD*%
D13*
%TO.C,J3*%
X109300000Y-121000000D03*
D14*
X109300000Y-126080000D03*
X109300000Y-131160000D03*
%TD*%
D15*
%TO.C,U5*%
X172000000Y-70680000D03*
D16*
X172000000Y-73220000D03*
X172000000Y-75760000D03*
X172000000Y-78300000D03*
X172000000Y-80840000D03*
X172000000Y-83380000D03*
X172000000Y-85920000D03*
X172000000Y-88460000D03*
X172000000Y-91000000D03*
X172000000Y-93540000D03*
X179620000Y-93540000D03*
X179620000Y-91000000D03*
X179620000Y-88460000D03*
X179620000Y-85920000D03*
X179620000Y-83380000D03*
X179620000Y-80840000D03*
X179620000Y-78300000D03*
X179620000Y-75760000D03*
X179620000Y-73220000D03*
X179620000Y-70680000D03*
%TD*%
D17*
%TO.C,K1*%
X145150000Y-132250000D03*
X145150000Y-139750000D03*
X140110000Y-132250000D03*
X140110000Y-139750000D03*
X150190000Y-132250000D03*
X150190000Y-139750000D03*
D18*
X124850000Y-139750000D03*
D19*
X124850000Y-132250000D03*
%TD*%
D20*
%TO.C,J6*%
X150000000Y-100460000D03*
D21*
X152540000Y-100460000D03*
X150000000Y-103000000D03*
X152540000Y-103000000D03*
X150000000Y-105540000D03*
X152540000Y-105540000D03*
X150000000Y-108080000D03*
X152540000Y-108080000D03*
X150000000Y-110620000D03*
X152540000Y-110620000D03*
%TD*%
D13*
%TO.C,J5*%
X194305000Y-131545000D03*
D14*
X194305000Y-126465000D03*
%TD*%
%TO.C,J4*%
X195000000Y-72000000D03*
X195000000Y-77000000D03*
X195000000Y-82000000D03*
X195000000Y-87000000D03*
X195000000Y-92000000D03*
X195000000Y-97000000D03*
X195000000Y-102000000D03*
D13*
X195000000Y-107000000D03*
%TD*%
D22*
%TO.C,H4*%
X194600000Y-145000000D03*
X195302944Y-143302944D03*
X195302944Y-146697056D03*
X197000000Y-142600000D03*
D23*
X197000000Y-145000000D03*
D22*
X197000000Y-147400000D03*
X198697056Y-143302944D03*
X198697056Y-146697056D03*
X199400000Y-145000000D03*
%TD*%
%TO.C,H3*%
X194000000Y-55000000D03*
X194702944Y-53302944D03*
X194702944Y-56697056D03*
X196400000Y-52600000D03*
D23*
X196400000Y-55000000D03*
D22*
X196400000Y-57400000D03*
X198097056Y-53302944D03*
X198097056Y-56697056D03*
X198800000Y-55000000D03*
%TD*%
%TO.C,H2*%
X103200000Y-145000000D03*
X103902944Y-143302944D03*
X103902944Y-146697056D03*
X105600000Y-142600000D03*
D23*
X105600000Y-145000000D03*
D22*
X105600000Y-147400000D03*
X107297056Y-143302944D03*
X107297056Y-146697056D03*
X108000000Y-145000000D03*
%TD*%
%TO.C,H1*%
X103200000Y-56000000D03*
X103902944Y-54302944D03*
X103902944Y-57697056D03*
X105600000Y-53600000D03*
D23*
X105600000Y-56000000D03*
D22*
X105600000Y-58400000D03*
X107297056Y-54302944D03*
X107297056Y-57697056D03*
X108000000Y-56000000D03*
%TD*%
D24*
%TO.C,C1*%
X180000000Y-143000000D03*
D25*
X180000000Y-138000000D03*
%TD*%
M02*
